<svg width="366" height="62" viewBox="0 0 366 62" fill="none" xmlns="http://www.w3.org/2000/svg">
<path d="M21.2236 0H26.4829V30.5251H19.4724L6.45686 6.80083V30.5251H1.19189V0H8.20244L21.218 23.595V0H21.2236Z" fill="#1E1E1C"/>
<path d="M31.7478 19.6269C31.7478 12.6462 36.0863 8.29028 42.0461 8.29028C48.0059 8.29028 51.7795 12.6968 51.7795 18.7107C51.7795 19.4526 51.7343 20.1946 51.6892 20.9365H36.6569C36.9224 24.7753 39.6396 26.8661 42.1365 26.8661H42.4868C44.6334 26.8661 46.2547 25.6465 46.6953 23.8142H51.6948C50.774 28.1757 47.1812 30.9691 42.1422 30.9691C36.6625 30.9691 31.7535 27.001 31.7535 19.6325L31.7478 19.6269ZM46.8253 17.0527C46.6501 13.9108 44.5487 12.3876 42.1365 12.3876H41.7863C39.4193 12.3876 37.1822 13.8715 36.7868 17.0527H46.8253Z" fill="#1E1E1C"/>
<path d="M55.5024 19.6269C55.5024 13.0003 59.9709 8.29028 66.2414 8.29028C72.5119 8.29028 77.0255 13.0003 77.0255 19.6269C77.0255 26.2535 72.5571 30.9635 66.2414 30.9635C59.9257 30.9635 55.5024 26.2535 55.5024 19.6269ZM66.4165 26.8661C69.7043 26.8661 71.9413 24.2076 71.9413 19.6269C71.9413 15.0462 69.7043 12.3876 66.4165 12.3876H66.0663C62.8237 12.3876 60.5414 15.0462 60.5414 19.6269C60.5414 24.2076 62.8237 26.8661 66.0663 26.8661H66.4165Z" fill="#1E1E1C"/>
<path d="M81.8894 30.5251V8.72306H86.9284V11.8649C88.2446 9.7741 90.6116 8.29028 93.7243 8.29028C98.8989 8.29028 101.481 11.6064 101.481 16.3164V30.5307H96.4415V17.0527C96.4415 14.13 95.1253 12.3876 92.538 12.3876H92.1877C89.3801 12.3876 86.9284 14.8326 86.9284 18.3623V30.5307H81.8894V30.5251Z" fill="#1E1E1C"/>
<path d="M106.13 24.5505C106.13 19.7112 110.118 17.8339 114.151 17.5304L119.891 17.0527V16.44C119.891 13.9951 118.354 12.382 115.903 12.382H115.552C113.36 12.382 111.784 13.6466 111.609 15.3047H106.57C106.921 11.2467 110.513 8.28467 115.733 8.28467C121.388 8.28467 124.806 11.5108 124.806 16.3108V25.7308C124.806 27.0404 124.806 29.0019 125.026 30.5307H120.292C120.117 29.7045 120.072 28.1757 120.072 27.5237C118.931 29.4403 116.479 30.9691 113.321 30.9691C109.287 30.9691 106.13 28.3499 106.13 24.5561V24.5505ZM114.547 26.8605C117.134 26.8605 119.897 24.809 119.897 22.0606V20.751L114.812 21.2287C112.926 21.403 111.129 22.3641 111.129 24.2357C111.129 25.7645 112.445 26.8549 114.197 26.8549H114.547V26.8605Z" fill="#1E1E1C"/>
<path d="M135.629 26.1242H148.165V30.5307H129.449V26.4333L141.329 13.1295H129.67V8.72302H147.509V12.8204L135.629 26.1242Z" fill="#1E1E1C"/>
<path d="M152.594 5.40694V0H158.073V5.40694H152.594ZM152.814 30.5251V8.72305H157.853V30.5307H152.814V30.5251Z" fill="#1E1E1C"/>
<path d="M195.154 0H200.413V30.5251H193.403L180.387 6.80083V30.5251H175.128V0H182.138L195.154 23.595V0Z" fill="#1E1E1C"/>
<path d="M205.673 19.6269C205.673 12.6462 210.011 8.29028 215.971 8.29028C221.931 8.29028 225.704 12.6968 225.704 18.7107C225.704 19.4526 225.659 20.1946 225.614 20.9365H210.582C210.847 24.7753 213.564 26.8661 216.061 26.8661H216.412C218.558 26.8661 220.18 25.6465 220.62 23.8142H225.62C224.699 28.1757 221.106 30.9691 216.067 30.9691C210.587 30.9691 205.678 27.001 205.678 19.6325L205.673 19.6269ZM220.75 17.0527C220.575 13.9108 218.473 12.3876 216.061 12.3876H215.711C213.344 12.3876 211.107 13.8715 210.712 17.0527H220.75Z" fill="#1E1E1C"/>
<path d="M237.98 30.5251C234.562 30.5251 232.675 28.6478 232.675 25.2474V12.8598H228.032V8.71746H232.675V1.65808H237.714V8.72308H242.753V12.8654H237.714V24.0727C237.714 25.7758 238.155 26.2085 239.861 26.2085H243.414V30.5251H237.98Z" fill="#1E1E1C"/>
<path d="M252.662 26.1242H265.197V30.5307H246.482V26.4333L258.362 13.1295H246.702V8.72302H264.542V12.8204L252.662 26.1242Z" fill="#1E1E1C"/>
<path d="M295.403 8.72302H300.402L293.917 30.5307H288.308L284.054 14.5234L279.891 30.5307H274.236L267.53 8.72302H272.66L277.219 25.4272L281.337 8.72302H286.686L291.025 25.3373L295.409 8.72302H295.403Z" fill="#1E1E1C"/>
<path d="M302.634 19.6269C302.634 12.6462 306.972 8.29028 312.932 8.29028C318.892 8.29028 322.666 12.6968 322.666 18.7107C322.666 19.4526 322.62 20.1946 322.575 20.9365H307.543C307.808 24.7753 310.526 26.8661 313.023 26.8661H313.373C315.519 26.8661 317.141 25.6465 317.581 23.8142H322.581C321.66 28.1757 318.067 30.9691 313.028 30.9691C307.549 30.9691 302.639 27.001 302.639 19.6325L302.634 19.6269ZM317.711 17.0527C317.536 13.9108 315.435 12.3876 313.023 12.3876H312.672C310.305 12.3876 308.068 13.8715 307.673 17.0527H317.711Z" fill="#1E1E1C"/>
<path d="M327.659 30.5251V8.72311H332.614V13.2589C333.489 10.2519 335.901 8.50391 338.969 8.50391H340.46V13.2139H338.574C334.76 13.2139 332.698 15.3497 332.698 19.3178V30.5251H327.659Z" fill="#1E1E1C"/>
<path d="M344.448 30.5251V0H349.487V17.4011L358.165 8.72305H364.52L355.798 17.4011L364.96 30.5251H358.91L352.25 20.9308L349.487 23.6343V30.5251H344.448Z" fill="#1E1E1C"/>
<path d="M42.4473 54.4235C42.4473 51.928 44.5035 50.9613 46.5824 50.8039L49.5425 50.5566V50.2419C49.5425 48.9829 48.7517 48.151 47.4863 48.151H47.3055C46.1757 48.151 45.3622 48.803 45.2718 49.6573H42.6732C42.854 47.5665 44.7069 46.0377 47.3959 46.0377C50.3108 46.0377 52.0733 47.7014 52.0733 50.1744V55.0306C52.0733 55.705 52.0733 56.7167 52.1863 57.5036H49.7459C49.6555 57.0764 49.6329 56.2896 49.6329 55.9523C49.0454 56.9415 47.78 57.7284 46.1531 57.7284C44.0742 57.7284 42.4473 56.3795 42.4473 54.4235ZM46.7858 55.6151C48.119 55.6151 49.5425 54.5584 49.5425 53.1421V52.4676L46.9214 52.7149C45.9497 52.8048 45.0233 53.2994 45.0233 54.2662C45.0233 55.053 45.7012 55.6151 46.605 55.6151H46.7858Z" fill="#1E1E1C"/>
<path d="M55.1465 57.5036V46.2625H57.7451V47.8588C58.4908 46.6897 59.7336 46.0377 61.1345 46.0377C62.7389 46.0377 64.0269 46.6897 64.7048 48.0386C65.5634 46.5998 67.0322 46.0377 68.4332 46.0377C71.2351 46.0377 72.4779 47.8138 72.4779 50.2194V57.5036H69.8794V50.6241C69.8794 49.0953 69.2918 48.2185 67.9135 48.2185H67.7327C66.3543 48.2185 65.1115 49.41 65.1115 51.2311V57.5036H62.5129V50.6241C62.5129 49.0953 61.9254 48.2185 60.547 48.2185H60.3663C58.9879 48.2185 57.7451 49.41 57.7451 51.2311V57.5036H55.1465Z" fill="#1E1E1C"/>
<path d="M81.2454 57.5036V41.7661H88.2051C91.0296 41.7661 92.9277 43.4748 92.9277 45.8803C92.9277 47.7464 91.8205 49.0278 90.3065 49.5224C92.0013 49.8372 93.2667 51.1861 93.2667 53.2769C93.2667 55.75 91.1878 57.5036 88.431 57.5036H81.2454ZM83.9569 48.3534H87.7983C89.3349 48.3534 90.2161 47.589 90.2161 46.2625C90.2161 44.9361 89.3349 44.1717 87.7983 44.1717H83.9569V48.3534ZM83.9569 55.098H87.9791C89.5608 55.098 90.5551 54.3336 90.5551 52.8948C90.5551 51.4559 89.5608 50.6915 87.9791 50.6915H83.9569V55.098Z" fill="#1E1E1C"/>
<path d="M95.3003 51.8887C95.3003 48.2915 97.5373 46.0433 100.61 46.0433C103.684 46.0433 105.627 48.314 105.627 51.4166C105.627 51.7988 105.604 52.1809 105.582 52.5631H97.8311C97.9667 54.5416 99.3676 55.6207 100.656 55.6207H100.836C101.944 55.6207 102.78 54.9912 103.006 54.047H105.582C105.107 56.2952 103.254 57.734 100.656 57.734C97.8311 57.734 95.3003 55.6882 95.3003 51.8887ZM103.073 50.5622C102.983 48.9435 101.898 48.1567 100.656 48.1567H100.475C99.2547 48.1567 98.1023 48.921 97.8989 50.5622H103.073Z" fill="#1E1E1C"/>
<path d="M108.09 44.5595V41.7717H110.914V44.5595H108.09ZM108.203 57.5092V46.2681H110.801V57.5092H108.203Z" fill="#1E1E1C"/>
<path d="M113.174 53.8896H115.818C115.863 55.0587 116.767 55.6882 117.965 55.6882H118.145C119.185 55.6882 119.93 55.1935 119.93 54.4292C119.93 53.7772 119.546 53.3725 118.597 53.1702L117.038 52.8329C114.914 52.3383 113.626 51.3716 113.626 49.5056C113.626 47.3923 115.479 46.0433 118.055 46.0433C120.992 46.0433 122.619 47.5496 122.619 49.8203H120.021C119.908 48.8311 119.32 48.0892 118.1 48.0892H117.919C116.925 48.0892 116.202 48.5613 116.202 49.3482C116.202 50.0227 116.722 50.3824 117.739 50.6072L119.365 50.9894C121.331 51.439 122.506 52.4283 122.506 54.3167C122.506 56.2052 120.834 57.734 117.965 57.734C114.937 57.734 113.174 56.2277 113.174 53.8896Z" fill="#1E1E1C"/>
<path d="M125.122 62V46.2625H127.721V47.7688C128.24 46.892 129.596 46.0377 131.178 46.0377C134.274 46.0377 136.127 48.5557 136.127 51.8831C136.127 55.2104 134.183 57.7284 131.088 57.7284C129.506 57.7284 128.24 56.8741 127.721 55.9973V62H125.122ZM130.749 55.6151C132.33 55.6151 133.528 54.2662 133.528 51.8831C133.528 49.5 132.33 48.151 130.749 48.151H130.568C129.099 48.151 127.721 49.5 127.721 51.8831C127.721 54.2662 129.099 55.6151 130.568 55.6151H130.749Z" fill="#1E1E1C"/>
<path d="M138.55 44.5595V41.7717H141.374V44.5595H138.55ZM138.663 57.5092V46.2681H141.261V57.5092H138.663Z" fill="#1E1E1C"/>
<path d="M143.809 51.8887C143.809 48.2915 146.046 46.0433 149.119 46.0433C152.193 46.0433 154.136 48.314 154.136 51.4166C154.136 51.7988 154.113 52.1809 154.091 52.5631H146.34C146.476 54.5416 147.877 55.6207 149.165 55.6207H149.345C150.453 55.6207 151.289 54.9912 151.515 54.047H154.091C153.616 56.2952 151.763 57.734 149.165 57.734C146.34 57.734 143.809 55.6882 143.809 51.8887ZM151.582 50.5622C151.492 48.9435 150.407 48.1567 149.165 48.1567H148.984C147.764 48.1567 146.611 48.921 146.408 50.5622H151.582Z" fill="#1E1E1C"/>
<path d="M156.712 57.5036V41.7661H159.311V57.5036H156.712Z" fill="#1E1E1C"/>
<path d="M175.535 46.2682H178.201L174.179 57.5092H170.631L166.609 46.2682H169.343L172.439 55.3734L175.535 46.2682Z" fill="#1E1E1C"/>
<path d="M179.173 51.8887C179.173 48.4714 181.477 46.0433 184.709 46.0433C187.94 46.0433 190.267 48.4714 190.267 51.8887C190.267 55.306 187.963 57.734 184.709 57.734C181.455 57.734 179.173 55.306 179.173 51.8887ZM184.799 55.6207C186.494 55.6207 187.646 54.2493 187.646 51.8887C187.646 49.5281 186.494 48.1567 184.799 48.1567H184.618C182.946 48.1567 181.771 49.5281 181.771 51.8887C181.771 54.2493 182.946 55.6207 184.618 55.6207H184.799Z" fill="#1E1E1C"/>
<path d="M192.776 57.5036V46.2625H195.374V47.8813C196.052 46.8021 197.272 46.0377 198.877 46.0377C201.543 46.0377 202.876 47.7464 202.876 50.1744V57.5036H200.278V50.5566C200.278 49.0503 199.6 48.151 198.267 48.151H198.086C196.64 48.151 195.374 49.41 195.374 51.2311V57.5036H192.776Z" fill="#1E1E1C"/>
<path d="M215.033 57.5036V44.1717H209.497V41.7661H223.303V44.1717H217.745V57.5036H215.033Z" fill="#1E1E1C"/>
<path d="M225.292 57.5036V41.7661H227.891V47.8812C228.568 46.8021 229.789 46.0377 231.393 46.0377C234.059 46.0377 235.393 47.7464 235.393 50.1744V57.5036H232.794V50.5566C232.794 49.0503 232.116 48.151 230.783 48.151H230.602C229.156 48.151 227.891 49.41 227.891 51.2311V57.5036H225.292Z" fill="#1E1E1C"/>
<path d="M237.788 51.8887C237.788 48.4714 240.093 46.0433 243.324 46.0433C246.555 46.0433 248.883 48.4714 248.883 51.8887C248.883 55.306 246.578 57.734 243.324 57.734C240.07 57.734 237.788 55.306 237.788 51.8887ZM243.414 55.6207C245.109 55.6207 246.262 54.2493 246.262 51.8887C246.262 49.5281 245.109 48.1567 243.414 48.1567H243.234C241.561 48.1567 240.386 49.5281 240.386 51.8887C240.386 54.2493 241.561 55.6207 243.234 55.6207H243.414Z" fill="#1E1E1C"/>
<path d="M251.391 57.5036V46.2626H253.944V48.6007C254.396 47.0494 255.639 46.1501 257.221 46.1501H257.989V48.5782H257.017C255.051 48.5782 253.989 49.6798 253.989 51.7257V57.5036H251.391Z" fill="#1E1E1C"/>
<path d="M259.074 53.8896H261.718C261.763 55.0587 262.667 55.6882 263.864 55.6882H264.045C265.084 55.6882 265.83 55.1935 265.83 54.4292C265.83 53.7772 265.446 53.3725 264.497 53.1702L262.938 52.8329C260.814 52.3383 259.526 51.3716 259.526 49.5056C259.526 47.3923 261.379 46.0433 263.955 46.0433C266.892 46.0433 268.519 47.5496 268.519 49.8203H265.92C265.807 48.8311 265.22 48.0892 264 48.0892H263.819C262.825 48.0892 262.102 48.5613 262.102 49.3482C262.102 50.0227 262.621 50.3824 263.638 50.6072L265.265 50.9894C267.231 51.439 268.406 52.4283 268.406 54.3167C268.406 56.2052 266.734 57.734 263.864 57.734C260.836 57.734 259.074 56.2277 259.074 53.8896Z" fill="#1E1E1C"/>
<path d="M274.869 57.5036C273.106 57.5036 272.134 56.5369 272.134 54.7833V48.3984H269.739V46.2626H272.134V42.6205H274.733V46.2626H277.332V48.3984H274.733V54.1763C274.733 55.0531 274.959 55.2779 275.84 55.2779H277.671V57.5036H274.869Z" fill="#1E1E1C"/>
<path d="M279.185 51.8887C279.185 48.2915 281.422 46.0433 284.495 46.0433C287.568 46.0433 289.511 48.314 289.511 51.4166C289.511 51.7988 289.489 52.1809 289.466 52.5631H281.715C281.851 54.5416 283.252 55.6207 284.54 55.6207H284.721C285.828 55.6207 286.664 54.9912 286.89 54.047H289.466C288.991 56.2952 287.139 57.734 284.54 57.734C281.715 57.734 279.185 55.6882 279.185 51.8887ZM286.958 50.5622C286.867 48.9435 285.783 48.1567 284.54 48.1567H284.359C283.139 48.1567 281.987 48.921 281.783 50.5622H286.958Z" fill="#1E1E1C"/>
<path d="M292.087 57.5036V46.2625H294.686V47.8813C295.363 46.8021 296.584 46.0377 298.188 46.0377C300.854 46.0377 302.188 47.7464 302.188 50.1744V57.5036H299.589V50.5566C299.589 49.0503 298.911 48.151 297.578 48.151H297.397C295.951 48.151 294.686 49.41 294.686 51.2311V57.5036H292.087Z" fill="#1E1E1C"/>
<path d="M310.955 57.5036V41.7661H313.667V48.4208H321.056V41.7661H323.767V57.5036H321.056V50.8489H313.667V57.5036H310.955Z" fill="#1E1E1C"/>
<path d="M326.479 51.8887C326.479 48.2915 328.716 46.0433 331.789 46.0433C334.862 46.0433 336.805 48.314 336.805 51.4166C336.805 51.7988 336.783 52.1809 336.76 52.5631H329.01C329.145 54.5416 330.546 55.6207 331.834 55.6207H332.015C333.122 55.6207 333.958 54.9912 334.184 54.047H336.76C336.286 56.2952 334.433 57.734 331.834 57.734C329.01 57.734 326.479 55.6882 326.479 51.8887ZM334.252 50.5622C334.162 48.9435 333.077 48.1567 331.834 48.1567H331.653C330.433 48.1567 329.281 48.921 329.077 50.5622H334.252Z" fill="#1E1E1C"/>
<path d="M339.268 44.5595V41.7717H342.093V44.5595H339.268ZM339.381 57.5092V46.2681H341.98V57.5092H339.381Z" fill="#1E1E1C"/>
<path d="M344.353 53.8896H346.996C347.042 55.0587 347.945 55.6882 349.143 55.6882H349.324C350.363 55.6882 351.109 55.1935 351.109 54.4292C351.109 53.7772 350.725 53.3725 349.776 53.1702L348.217 52.8329C346.092 52.3383 344.804 51.3716 344.804 49.5056C344.804 47.3923 346.657 46.0433 349.233 46.0433C352.171 46.0433 353.798 47.5496 353.798 49.8203H351.199C351.086 48.8311 350.499 48.0892 349.279 48.0892H349.098C348.104 48.0892 347.38 48.5613 347.38 49.3482C347.38 50.0227 347.9 50.3824 348.917 50.6072L350.544 50.9894C352.51 51.439 353.685 52.4283 353.685 54.3167C353.685 56.2052 352.013 57.734 349.143 57.734C346.115 57.734 344.353 56.2277 344.353 53.8896Z" fill="#1E1E1C"/>
<path d="M355.673 51.8887C355.673 48.2915 357.91 46.0433 360.984 46.0433C364.057 46.0433 366 48.314 366 51.4166C366 51.7988 365.977 52.1809 365.955 52.5631H358.204C358.34 54.5416 359.741 55.6207 361.029 55.6207H361.209C362.317 55.6207 363.153 54.9912 363.379 54.047H365.955C365.48 56.2952 363.627 57.734 361.029 57.734C358.204 57.734 355.673 55.6882 355.673 51.8887ZM363.447 50.5622C363.356 48.9435 362.272 48.1567 361.029 48.1567H360.848C359.628 48.1567 358.475 48.921 358.272 50.5622H363.447Z" fill="#1E1E1C"/>
<path d="M39.3404 50.1177H0V54.052H39.3404V50.1177Z" fill="#1E1E1C"/>
</svg>
