<svg width="10" height="14" viewBox="0 0 10 14" fill="none" xmlns="http://www.w3.org/2000/svg">
<path d="M0.818182 0H2.86364C3.31551 0 3.68182 0.48325 3.68182 0.875V13.125C3.68182 13.3571 3.59562 13.5796 3.44218 13.7437C3.28874 13.9078 3.08063 14 2.86364 14H0.818182C0.366312 14 0 13.5168 0 13.125V0.875C0 0.642936 0.0862011 0.420376 0.23964 0.256282C0.393079 0.0921872 0.601186 0 0.818182 0V0Z" fill="black"/>
<path d="M7.13654 0H9.182C9.63387 0 10.0002 0.48325 10.0002 0.875V13.125C10.0002 13.3571 9.91398 13.5796 9.76054 13.7437C9.6071 13.9078 9.39899 14 9.182 14H7.13654C6.68467 14 6.31836 13.5168 6.31836 13.125V0.875C6.31836 0.642936 6.40456 0.420376 6.558 0.256282C6.71144 0.0921872 6.91955 0 7.13654 0V0Z" fill="black"/>
</svg>
